<svg xmlns="http://www.w3.org/2000/svg" viewBox="0 0 64 64" width="64px" height="64px">
    <path d="M 28 6 C 24.772853 6 20.020228 6.4237358 16.832031 7.5097656 C 13.344852 8.6977028 11.169911 10.247737 9.9433594 12.009766 C 8.7168077 13.771794 8.517747 15.70294 8.8085938 17.365234 C 9.390287 20.689822 11.765625 23.179687 11.765625 23.179688 A 1.000641 1.000641 0 0 0 13.234375 21.820312 C 13.234375 21.820312 11.226104 19.575147 10.779297 17.021484 C 10.555894 15.744653 10.681176 14.452097 11.585938 13.152344 C 12.490697 11.852591 14.251741 10.50286 17.476562 9.4042969 C 20.218366 8.4703267 24.963147 8 28 8 L 31 8 C 44.532381 8 50 17.377103 50 24 C 50 29.257242 46.418115 34.411939 41.773438 36.015625 A 1.0001 1.0001 0 0 0 41.265625 37.681641 A 1.0005646 1.0005646 0 0 0 41.269531 37.685547 A 1.0001 1.0001 0 0 0 41.339844 37.751953 A 1.0001 1.0001 0 0 0 41.398438 37.798828 A 1.0005646 1.0005646 0 0 0 41.417969 37.814453 A 1.0001 1.0001 0 0 0 41.439453 37.828125 A 1.0005646 1.0005646 0 0 0 41.501953 37.869141 L 54.767578 46.835938 A 1.0001 1.0001 0 0 0 54.773438 46.839844 C 57.080762 48.37806 57.698373 51.466113 56.160156 53.773438 C 55.192698 55.224624 53.610294 56.001953 51.994141 56.001953 C 51.0407 56.001953 50.08172 55.730819 49.226562 55.160156 L 27.568359 40.177734 A 1.0001 1.0001 0 0 0 26 41 L 26 51 C 26 53.772302 23.772302 56 21 56 C 18.227698 56 16 53.772302 16 51 L 16 27 C 16 24.227698 18.227698 22 21 22 C 23.772302 22 26 24.227698 26 27 L 26 36 A 1.0001 1.0001 0 1 0 28 36 C 28 28.534722 30.393808 25.509833 32.642578 24.152344 C 34.891348 22.794854 37.105469 23.115234 37.105469 23.115234 A 1.000726 1.000726 0 0 0 37.394531 21.134766 C 37.394531 21.134766 34.483652 20.705146 31.607422 22.441406 C 30.277769 23.244062 28.982859 24.520827 27.970703 26.433594 C 27.679465 22.843738 24.662336 20 21 20 C 17.146302 20 14 23.146302 14 27 L 14 51 C 14 54.853698 17.146302 58 21 58 C 24.8174 58 27.935643 54.911407 27.994141 51.107422 A 1.0001 1.0001 0 0 0 28 51 L 28 42.90625 L 48.103516 56.814453 A 1.0001 1.0001 0 0 0 48.117188 56.824219 C 49.30603 57.617556 50.659581 58.001953 51.994141 58.001953 C 54.255987 58.001953 56.479677 56.899625 57.824219 54.882812 C 59.962002 51.676138 59.089488 47.313565 55.882812 45.175781 L 44.076172 37.197266 C 48.767392 34.786972 52 29.51672 52 24 C 52 16.262897 45.467619 6 31 6 L 28 6 z" stroke="rgb(168, 85, 247)" stroke-width="3" fill="rgb(168, 85, 247)" />
</svg>
